# xmcd
#
# Track frame offsets:
#	150
#	19020
#	54303
#	88253
#	120508
#	142060
#
# Disc length: 2331 seconds
#
# Revision: 1
# Processed by: cddbd v1.5.2PL0 Copyright (c) Steve Scherf et al.
# Submitted via: audiograbber 1.83.01
#
DISCID=4b091906
DTITLE=NRPS - 71-04-29 Fillmore East, New York NY
DYEAR=1900
DGENRE=
TTITLE0=Fair Chance To Know
TTITLE1=The Weight
TTITLE2=Portland Woman
TTITLE3=Last Lonely Eagle
TTITLE4=Louisiana Lady
TTITLE5=Honky Tonk Women
EXTD=
EXTT0=
EXTT1=
EXTT2=
EXTT3=
EXTT4=
EXTT5=
PLAYORDER=
